<svg width="38" height="40" viewBox="0 0 38 40" fill="none" xmlns="http://www.w3.org/2000/svg">
<path d="M3.71725 37.721C3.71725 37.721 3.73742 38.6753 4.31745 39.0901C4.31745 39.0901 4.00474 39.8014 3.57602 39.8666C3.57602 39.8666 2.9052 39.9614 3.28348 38.3256C3.28348 38.3256 3.57098 37.798 3.71725 37.721Z" fill="#E3E3E3"/>
<path d="M6.10798 37.5906C6.10798 37.5906 6.4207 38.9123 6.65271 38.9301C6.65271 38.9301 6.03595 39.5346 5.80057 39.6017C5.80057 39.6017 5.27273 39.6478 5.52238 38.2061C5.52238 38.2061 5.88756 37.7295 6.10798 37.5906Z" fill="#E3E3E3"/>
<path d="M30.2238 22.9674C30.2238 22.9674 30.7017 23.7721 30.6375 24.7193C30.6375 24.7193 30.8443 24.4007 29.8457 25.5156C29.8457 25.5156 29.4177 26.0185 29.7102 23.5793C29.7102 23.5793 30.024 23.0596 30.2238 22.9674Z" fill="#E3E3E3"/>
<path d="M27.8842 24.5851C27.9626 25.6664 27.8342 26.0436 27.8342 26.0436C27.0353 26.3957 26.8713 26.2197 26.8713 26.2197C26.7857 25.9011 26.8713 25.8005 26.8713 25.8005C27.0353 25.0545 27.6844 24.5432 27.6844 24.5432C27.6844 24.5432 27.8842 24.4846 27.8842 24.5851Z" fill="#E3E3E3"/>
<path d="M7.16213 28.5756C7.16213 28.5756 6.92003 29.5713 5.97181 30.2114C5.97181 30.2114 5.77005 30.9938 5.81041 32.8312C5.81041 32.8312 5.78014 33.6491 5.40691 34.0877C5.40691 34.0877 5.63892 34.9412 5.22533 35.4865C5.22533 35.4865 4.69069 36.0081 4.65034 36.5297C4.65034 36.5297 4.50912 36.5534 4.48894 36.6838C4.48894 36.6838 4.56964 37.5254 4.44859 37.6439L3.71725 37.721C3.71725 37.721 3.78281 38.7108 4.31745 39.0901C4.31745 39.0901 4.48894 39.3391 5.51787 37.5373C5.51787 37.5373 5.84067 37.561 5.80032 36.7905C5.80032 36.7905 6.54842 32.7685 6.9484 32.5541C6.9484 32.5541 6.85951 29.4409 7.16213 28.5756Z" fill="#E3E3E3"/>
<path d="M6.65271 38.9301C6.65271 38.9301 6.23408 38.2604 6.10798 37.5906C6.10798 37.5906 6.26433 37.3476 6.63757 37.5847C6.63757 37.5847 6.76871 37.2528 6.66783 36.7193C6.66783 36.7193 7.14195 36.1266 7.05116 35.8658C7.05116 35.8658 7.40422 35.3443 7.39413 35.119C7.39413 35.119 8.08008 31.6576 7.86825 31.0294C7.86825 31.0294 8.46341 30.3893 8.51385 30.247C8.51385 30.247 8.36253 31.1716 8.58446 31.7525C8.58446 31.7525 9.1191 31.2902 9.29058 32.0251C9.29058 32.0251 7.96912 35.0479 8.01956 37.0038C8.01956 37.0038 8.17087 37.2053 7.79763 37.3357C7.79763 37.3357 7.04108 38.8175 6.65271 38.9301Z" fill="#E3E3E3"/>
<path d="M29.4051 17.5276C29.4051 17.5276 30.7064 17.1838 31.2612 17.409C31.2612 17.409 32.0278 18.1084 32.2094 18.6063C32.2094 18.6063 31.8967 20.9178 32.2296 22.1625C32.2296 22.1625 32.5524 22.7552 32.2094 23.0871C32.2094 23.0871 31.537 23.2219 30.6375 24.7193C30.6375 24.7193 30.6692 23.7841 30.2238 22.9674C30.2238 22.9674 32.2699 20.2422 30.8072 18.713C30.8072 18.713 29.9397 18.7367 29.5059 19.1397C29.5059 19.1397 30.3634 18.5115 30.2928 18.4285C30.2928 18.4285 30.6257 18.0729 30.7164 18.1321C30.7164 18.1321 29.5866 17.2786 29.4051 17.5276Z" fill="#E3E3E3"/>
<path d="M27.8842 24.5851C27.8842 24.5851 28.1038 24.1066 28.5476 24.8297C28.5476 24.8297 29.0419 24.7349 29.0722 24.2726C29.0722 24.2726 29.4833 24.136 29.5967 23.8577C29.5967 23.8577 29.516 25.2209 29.5967 25.4935C29.5967 25.4935 28.6788 25.4817 28.4367 25.8136C28.4367 25.8136 28.0186 26.3211 27.8342 26.0436C27.8342 26.0436 27.9974 24.7792 27.8842 24.5851Z" fill="#E3E3E3"/>
<path d="M30.2121 20.6808C29.7379 20.4081 29.2739 21.072 29.2739 21.072C29.5261 20.8823 31.0796 21.3446 31.0796 21.3446C31.2713 21.2379 31.2813 20.0525 31.2813 20.0525C31.241 19.768 30.0204 19.4005 30.0204 19.4005C30.0204 19.4005 30.5349 20.1592 30.2121 20.6808Z" fill="#E3E3E3"/>
<path d="M1.89628 27.5458C1.05732 28.6699 0 28.3622 0 28.3622C1.79901 29.4566 5.19867 26.2758 5.64601 23.9352C6.27146 20.6626 6.62733 23.139 6.62733 23.139C6.96601 24.5825 4.6806 27.2005 4.6806 27.2005C7.8279 25.4224 7.46475 21.8188 7.46475 21.8188C7.1823 20.3251 7.52528 19.2109 7.52528 19.2109C7.78755 18.6656 8.877 18.9738 8.877 18.9738L9.21998 18.0966C7.8279 17.2668 5.86787 19.76 5.86787 19.76C4.60416 21.0862 3.26835 25.8017 3.26835 25.8017C2.62275 27.7695 0.201751 27.4376 0.201751 27.4376L1.3719 27.6273L1.89628 27.5458Z" fill="#E3E3E3"/>
<path d="M6.93956 32.5324C6.93956 32.5324 6.62749 29.4528 7.16213 28.5756C7.16213 28.5756 7.94896 26.916 7.97922 26.7145C7.97922 26.7145 7.24283 21.309 8.00948 20.2777C8.00948 20.2777 9.16955 15.8206 14.415 15.3464C14.415 15.3464 15.3431 14.9908 15.4541 15.1686L20.2733 12.6742C20.2733 12.6742 22.4275 10.6122 22.5131 10.7128C22.5131 10.7128 28.6485 6.45587 30.4239 6.33734C30.4239 6.33734 33.6116 5.3653 34.5598 6.26621C34.5598 6.26621 36.0527 6.38475 36.4764 10.344C36.4764 10.344 36.2141 14.5878 36.2948 15.299C36.2948 15.299 35.5484 16.7452 35.1247 16.603C35.1247 16.603 34.1966 15.3227 34.0756 15.5124C34.0756 15.5124 33.6923 15.3227 34.0352 14.896C34.0352 14.896 34.4186 14.6826 32.0984 11.1738C32.0984 11.1738 31.8563 10.4626 30.5651 12.3829C30.5651 12.3829 29.0823 13.5446 29.738 17.3024C29.738 17.3024 29.4555 17.3498 29.4051 17.5276C29.4051 17.5276 29.9094 17.3972 30.7164 18.1321C30.7164 18.1321 29.7279 19.0449 29.5059 19.1397C29.5059 19.1397 29.9383 19.3122 30.0204 19.4005C30.0204 19.4005 30.5427 20.2298 30.2121 20.6808C30.2121 20.6808 29.8291 20.3416 29.2739 21.072C29.2739 21.072 27.2993 20.5617 27.1209 20.721C27.1209 20.721 23.3627 22.9805 20.9417 23.0279C20.9417 23.0279 15.8794 23.1015 15.2232 23.135C15.2232 23.135 13.4685 24.9959 13.0548 26.5885C13.0548 26.5885 11.9706 27.0579 10.8864 29.7234C10.8864 29.7234 9.54938 31.3261 9.29058 32.0251C9.29058 32.0251 9.12148 31.334 8.58446 31.7525C8.58446 31.7525 8.32402 30.5359 8.51385 30.247C8.51385 30.247 8.07423 30.7931 7.86825 31.0294C7.86825 31.0294 6.83361 31.6164 6.93956 32.5324Z" fill="#E3E3E3"/>
<path d="M8.51385 30.247C8.51385 30.247 10.3015 26.8232 11.2715 26.337L8.51385 30.247Z" fill="#E3E3E3"/>
<path d="M11.2715 26.337C11.2715 26.337 13.4466 22.4707 14.0115 22.5182L11.2715 26.337Z" fill="#E3E3E3"/>
<path d="M15.2232 23.135C15.2232 23.135 13.9411 23.1612 13.5073 22.9833L15.2232 23.135Z" fill="#E3E3E3"/>
<path d="M27.1209 20.721C27.1209 20.721 29.2235 19.0212 29.5059 19.1397L27.1209 20.721Z" fill="#E3E3E3"/>
<path d="M27.327 17.0534C27.327 17.0534 29.5866 17.2431 29.7581 17.4209L27.327 17.0534Z" fill="#E3E3E3"/>
<path d="M31.2713 9.64462C31.2713 9.64462 28.6687 12.6911 29.6068 14.6826L31.2713 9.64462Z" fill="#E3E3E3"/>
<path d="M28.0332 17.1601C28.0332 17.1601 28.931 16.2829 28.9511 15.6902L28.0332 17.1601Z" fill="#E3E3E3"/>
<path d="M11.7822 18.8552C11.7822 18.8552 13.5173 17.1483 13.3559 16.7452L11.7822 18.8552Z" fill="#E3E3E3"/>
<path d="M10.4506 22.696C10.4506 22.696 11.6611 20.3963 11.9234 20.6096L10.4506 22.696Z" fill="#E3E3E3"/>
<path d="M26.2275 17.7884C26.2275 17.7884 26.9538 16.1288 27.3573 16.2948L26.2275 17.7884Z" fill="#E3E3E3"/>
<path d="M32.114 10.0422C32.114 10.0422 31.3864 10.6457 31.4435 10.8972L32.114 10.0422Z" fill="#E3E3E3"/>
<path d="M8.43316 26.9871C8.43316 26.9871 8.69543 27.7221 9.60331 27.0345L8.43316 26.9871Z" fill="#E3E3E3"/>
<path d="M9.21998 30.5671C9.21998 30.5671 10.1077 29.0735 10.3901 29.2394L9.21998 30.5671Z" fill="#E3E3E3"/>
<path d="M28.5476 18.8552C28.5476 18.8552 29.5866 18.0966 29.9397 18.2625L28.5476 18.8552Z" fill="#E3E3E3"/>
<path d="M26.7924 18.2151C26.7924 18.2151 25.9652 18.8789 26.0258 19.1634L26.7924 18.2151Z" fill="#E3E3E3"/>
<path d="M12.7708 24.5689C12.7708 24.5689 13.376 24.4504 13.9611 23.8577L12.7708 24.5689Z" fill="#E3E3E3"/>
<path d="M34.0656 14.414C34.0656 14.414 34.4236 13.8064 34.5727 14.0869C34.5727 14.0869 35.0997 14.788 34.881 15.5241C34.881 15.5241 35.0785 16.1021 35.3085 16.0382C35.3085 16.0382 35.5076 16.4437 35.3135 16.5173C35.3135 16.5173 35.1991 16.6984 34.876 16.1843C34.876 16.1843 34.175 15.1911 34.0756 15.5124C34.0756 15.5124 33.78 15.1355 34.1366 14.8595C34.1366 14.8595 33.9811 14.3615 34.0656 14.414Z" fill="#E3E3E3"/>
<path d="M34.5063 14.9839C34.5063 14.9839 34.4786 15.6297 34.4886 15.7874L34.5063 14.9839Z" fill="#E3E3E3"/>
<path d="M34.6034 6.14453C34.6034 6.14453 33.9686 7.96344 33.9899 8.44122C33.9899 8.44122 35.8088 7.99697 36.1441 10.1595C36.1441 10.1595 36.4151 9.95838 36.4508 10.0087C36.4508 10.0087 36.8289 7.21744 34.6034 6.14453Z" fill="#E3E3E3"/>
<path d="M32.5034 11.8252C32.6817 11.4229 34.1397 9.22075 34.1397 9.22075C34.0969 9.2962 34.1683 11.4085 34.1683 11.4085L32.8558 12.4311L32.9565 12.5652C33.1348 12.4479 34.1968 11.6935 34.1968 11.6935C34.0755 11.6767 34.1968 13.0514 34.1968 13.0514C33.4906 13.0178 33.3546 13.6295 33.3546 13.6295C33.7256 13.0511 34.3109 13.1268 34.3109 13.1268C33.298 13.8477 33.63 13.8037 33.63 13.8037C33.6157 13.5439 34.3894 13.1184 34.3894 13.1184C34.3965 11.1067 34.5035 11.4169 34.5035 11.4169C34.6034 11.3666 36.1798 12.4814 36.1798 12.4814C36.4508 12.4814 36.3224 13.043 36.3224 13.043C34.9315 14.5602 34.0399 14.6524 34.0399 14.6524L34.1469 14.7781C34.7603 14.9373 36.3652 13.2274 36.3652 13.2274C36.7219 12.8502 36.3224 12.2635 36.3224 12.2635C36.1584 12.2802 34.6034 11.0397 34.6034 11.0397C34.5106 10.5703 34.6105 8.70107 34.6105 8.70107C34.6533 8.61724 35.3238 8.67592 35.3238 8.67592L34.3466 8.43284C34.1611 8.34902 32.3922 11.6348 32.3922 11.6348L32.5034 11.8252Z" fill="#E3E3E3"/>
<path d="M26.473 7.92709C26.805 7.78919 33.1529 13.3471 33.4254 13.6748L33.5721 13.7447C33.8667 13.7907 26.6482 7.88577 26.6482 7.88577L26.473 7.92709Z" fill="#E3E3E3"/>
<path d="M26.8071 7.04141C26.8071 7.04141 26.6929 8.2652 25.9511 8.65077C25.9511 8.65077 23.5117 12.6407 23.6686 13.8644C23.6686 13.8644 24.3533 15.39 24.7385 13.395C24.7385 13.395 26.1366 9.01958 27.0353 8.63401C27.0353 8.63401 27.7772 6.32055 26.8071 7.04141Z" fill="#E3E3E3"/>
<path d="M25.0524 10.2769C25.0524 10.2769 26.7643 12.1545 27.0924 12.2215C27.0924 12.2215 29.4748 13.4286 29.7173 13.9315C29.7173 13.9315 30.6303 12.9592 31.1439 13.1436C31.1439 13.1436 32.1537 13.9311 32.382 12.6235" fill="#E3E3E3"/>
<path d="M31.5942 11.9974C31.5942 11.9974 31.8144 12.9089 31.1439 13.1436L31.5942 11.9974Z" fill="#E3E3E3"/>
<path d="M17.0075 13.0467C17.0075 13.0467 15.212 11.885 16.5839 13.4024C16.5839 13.4024 16.1198 13.9239 16.604 14.3981C16.604 14.3981 15.797 14.1136 15.5549 15.1094L15.5348 17.0297C15.5348 17.0297 15.5953 17.741 16.3821 17.6698L20.9013 17.006M20.9013 17.006L24.1361 21.9579L25.152 21.6738L22.1118 16.4607C22.1118 16.4607 24.4879 13.0967 22.5131 10.7128L22.0109 10.1069L18.8636 12.5963C18.8636 12.5963 18.7628 13.3075 17.0075 13.0467" fill="#E3E3E3"/>
<path d="M26.5251 6.84706C26.5251 6.84706 26.7218 5.54904 26.8075 5.52533C26.8075 5.52533 26.832 6.70342 26.7916 6.83975" fill="#E3E3E3"/>
<path d="M16.604 14.3981C16.604 14.3981 17.9255 14.41 18.0566 14.0425C18.0566 14.0425 18.7022 15.7376 19.0755 15.7495C19.0755 15.7495 22.5657 15.785 22.0916 13.1297C22.0916 13.1297 22.5052 12.8926 22.5153 12.7504" fill="#E3E3E3"/>
<path d="M22.5153 12.7504C22.5153 12.7504 22.5254 11.4109 22.1521 11.3872C22.1521 11.3872 21.6982 10.8893 21.6579 11.0315C21.6579 11.0315 21.7991 10.427 21.7386 10.427" fill="#E3E3E3"/>
<path d="M21.2291 17.4979C21.2291 17.4979 20.518 16.5437 20.5987 16.1999C20.5987 16.1999 21.5469 15.8087 21.7083 15.9273C21.7083 15.9273 22.0715 16.2118 22.1118 16.4607" fill="#E3E3E3"/>
<path d="M21.1515 15.9885L21.0496 16.0807C21.0496 16.0807 21.1598 16.2487 21.2709 16.4365C21.3265 16.5303 21.3823 16.6291 21.4238 16.7128C21.4654 16.7965 21.6264 16.9586 21.6264 16.9586L21.6187 16.8709C21.6141 16.7937 21.5795 16.7262 21.535 16.6365C21.4905 16.5469 21.4332 16.4457 21.3766 16.3499C21.2632 16.1583 21.1515 15.9885 21.1515 15.9885Z" fill="#E3E3E3"/>
<path d="M19.0048 19.8865C18.9342 17.8832 19.7816 17.9543 19.7816 17.9543C19.7816 17.9543 20.0237 19.0331 19.8522 20.2066" fill="#E3E3E3"/>
<path d="M34.6818 6.32055C34.6818 6.32055 33.455 4.07415 32.0855 4.3759C32.0855 4.3759 33.0841 4.72795 33.3551 5.18059C33.3551 5.18059 31.3864 4.26694 31.044 4.36752C31.044 4.36752 32.1211 4.9878 32.0926 5.07162C32.0926 5.07162 32.4421 5.34823 32.328 5.33146C32.328 5.33146 30.8301 4.6106 29.4605 4.47649C29.4605 4.47649 30.288 4.96265 30.2024 5.24764C30.2024 5.24764 28.9755 4.56031 28.4619 4.81177C28.4619 4.81177 27.9911 4.92912 27.9911 5.13029C27.9911 5.13029 28.8614 5.08 28.8614 5.3147C28.8614 5.3147 29.0326 5.4991 29.218 5.71704C29.218 5.71704 27.6345 5.24764 27.4062 5.41528C27.4062 5.41528 28.4762 5.88468 28.4762 6.08585C28.4762 6.08585 26.8641 6.00203 26.7072 6.16967L27.6773 6.70612L26.8728 7.09426L26.6502 7.5611L27.2921 7.71198C27.2921 7.71198 28.5332 7.13361 28.5118 6.96597C28.5118 6.96597 29.7815 6.73127 29.7672 6.5301C29.7672 6.5301 31.2081 6.25349 31.1724 6.0607C31.1724 6.0607 32.171 6.24511 32.2138 6.14453L32.2566 6.04394C32.2566 6.04394 31.9357 6.79833 31.8358 6.75642C31.8358 6.75642 33.1768 6.46305 33.1839 6.28702C33.1839 6.28702 34.6818 6.42952 34.6818 6.32055Z" fill="#E3E3E3"/>
<path d="M34.7532 7.05818L34.7389 7.94667H36.0442C36.0442 7.94667 35.8445 7.30126 36.137 7.07494C36.137 7.07494 36.6577 6.45466 37.0286 5.49072C37.0286 5.49072 35.5521 6.30379 35.4736 6.46305C35.4736 6.46305 34.7532 6.89891 34.7532 7.05818Z" fill="#E3E3E3"/>
<path d="M35.1169 9.95C35.1169 9.95 35.6305 10.0087 35.6733 9.9416C35.6733 9.9416 35.7874 10.52 35.7304 10.5786C35.7304 10.5786 35.0884 10.6709 35.1169 9.95Z" fill="#E3E3E3"/>
<path d="M35.7518 15.6079C35.7661 15.4319 36.0442 15.105 36.0442 15.105C35.4379 15.1218 35.4593 15.8929 35.4593 15.8929C35.4593 15.8929 35.7446 16.0605 35.7518 15.6079Z" fill="#E3E3E3"/>
<path d="M24.9882 8.20652C24.9882 8.20652 26.2864 6.7648 26.7358 6.73127C26.7358 6.73127 27.0781 7.67845 26.4932 8.04726C26.4932 8.04726 25.5303 8.61724 25.3948 9.07826C25.3948 9.07826 25.2236 8.36578 24.9882 8.20652Z" fill="#E3E3E3"/>
<path d="M24.3462 6.02718C24.3462 6.02718 24.9668 4.66928 25.0381 4.8453C25.0381 4.8453 25.5303 4.97104 25.7443 4.56031C25.7443 4.56031 25.9939 3.97356 25.944 3.76401C25.944 3.76401 26.051 3.59637 26.1152 3.6299C26.1152 3.6299 25.9583 3.15212 25.9868 3.14373C25.9868 3.14373 26.0225 2.69948 25.9796 2.64081C25.9796 2.64081 26.1651 2.48993 25.516 2.41449C25.516 2.41449 25.0452 2.62405 24.8883 2.85875C24.8883 2.85875 23.8184 3.87298 23.6614 3.84783L23.5687 4.26694L24.3462 6.02718Z" fill="#E3E3E3"/>
<path d="M18.5711 8.50663C18.5711 8.50663 16.3917 8.9633 16.6476 10.4777C16.6476 10.4777 17.179 12.454 19.711 13.7936L20.9417 15.0264C20.9417 15.0264 21.8193 13.8528 21.4561 12.9401C21.4561 12.9401 19.8421 9.65647 18.7325 10.2729L19.0149 9.69204L18.5711 8.50663Z" fill="#E3E3E3"/>
<path d="M20.8154 4.92912C20.8154 4.92912 21.5786 6.0607 23.0409 4.36752C23.0409 4.36752 23.961 3.8143 23.2905 3.28623C23.2905 3.28623 22.7698 2.80007 25.4518 2.37258C25.4518 2.37258 23.8398 3.83107 23.6614 3.84783L22.8055 5.15544M22.8055 5.15544C22.8055 5.15544 21.7427 5.79248 21.2291 5.62484C21.2291 5.62484 20.6585 5.22249 20.8154 4.92912" fill="#E3E3E3"/>
<path d="M23.1811 3.18415C23.1811 3.18415 25.2087 1.572 26.9639 2.89965C26.9639 2.89965 27.206 2.80482 27.0547 2.66257C27.0547 2.66257 26.742 2.41364 26.4696 2.41364C26.4696 2.41364 26.4192 0.872607 25.0674 0.552546C25.0674 0.552546 22.5355 0.505129 23.1811 3.18415Z" fill="#E3E3E3"/>
<path d="M23.6552 2.97078C23.6552 2.97078 24.7043 3.62275 24.8153 3.96652L23.6552 2.97078Z" fill="#E3E3E3"/>
<path d="M24.8859 2.42549C24.8859 2.42549 24.9565 3.82427 24.8153 3.96652L24.8859 2.42549Z" fill="#E3E3E3"/>
<path d="M24.8153 3.96652C24.8153 3.96652 25.2995 4.59479 25.2591 4.9267L24.8153 3.96652Z" fill="#E3E3E3"/>
<path d="M23.8354 3.95251C23.8354 3.95251 24.7433 4.7823 24.4306 6.27591L23.8354 3.95251Z" fill="#E3E3E3"/>
<path d="M25.0543 8.10503C25.0543 8.10503 25.4376 8.2947 25.4881 8.95852L25.0543 8.10503Z" fill="#E3E3E3"/>
<path d="M19.711 13.7936C19.711 13.7936 19.9632 13.4024 20.2053 13.6987C20.2053 13.6987 21.1333 14.896 21.0627 15.1212C21.0627 15.1212 19.9632 17.7173 19.6404 17.741C19.6404 17.741 19.1259 17.7528 18.8737 19.365C18.8737 19.365 18.8779 19.4812 18.9082 19.7539L19.3725 20.4684C19.3725 20.4684 18.8132 20.6926 18.7829 20.823C18.7829 20.823 18.4904 21.2498 18.1373 21.1312C18.1373 21.1312 17.4715 20.8112 18.0163 20.3844C18.0163 20.3844 18.0869 18.7367 18.5307 18.796C18.5307 18.796 18.5207 16.0103 19.711 13.7936Z" fill="#E3E3E3"/>
<path d="M19.0351 7.74797C18.904 7.62943 17.6027 8.49477 17.6027 8.49477C17.6027 8.49477 17.6531 7.93764 17.7237 7.94949C17.7237 7.94949 18.561 7.70055 18.7527 7.42791C18.7527 7.42791 19.6404 7.07229 20.1447 7.2501C20.1447 7.2501 21.7487 5.17564 22.3136 5.35345C22.3136 5.35345 23.0197 4.36956 23.2416 4.45254C23.2416 4.45254 23.6754 4.00208 23.7762 4.13248C23.7762 4.13248 24.4824 3.97837 24.3815 6.3729L24.5227 6.57442C24.5227 6.57442 24.8758 5.98171 24.8354 5.96986C24.8354 5.96986 25.017 7.04858 24.7245 8.21028H25.0876C25.0876 8.21028 25.4709 8.68445 25.4709 9.14675C25.4709 9.14675 23.5745 11.1027 23.1004 11.0197C23.1004 11.0197 22.4346 9.95283 22.5153 9.71575C22.5153 9.71575 21.8596 9.90541 21.6377 10.1662C21.6377 10.1662 21.2039 10.8182 20.0338 10.6878C20.0338 10.6878 19.1663 10.0477 18.904 10.2136C18.904 10.2136 17.4716 8.68444 17.9154 8.68444C17.9154 8.68444 19.1965 8.1273 19.0351 7.74797Z" fill="#E3E3E3"/>
<path d="M22.0916 6.71666C22.0916 6.71666 22.364 9.36012 22.5657 9.8817L22.0916 6.71666Z" fill="#E3E3E3"/>
<path d="M23.7863 6.06469C23.7863 6.06469 24.0486 8.8504 23.8872 8.94523L24.7245 8.21028" fill="#E3E3E3"/>
<path d="M20.4978 7.80724C20.4978 7.80724 21.8092 8.42365 21.8394 8.18657L20.4978 7.80724Z" fill="#E3E3E3"/>
<path d="M20.1246 8.06803C20.1246 8.06803 21.5973 8.86225 21.7184 8.72L20.1246 8.06803Z" fill="#E3E3E3"/>
<path d="M19.1876 19.7513C19.1876 19.7513 20.2092 19.0723 20.4118 19.7786C20.4118 19.7786 20.1973 20.3013 19.6723 20.4042C19.6723 20.4042 19.2762 19.7513 19.1876 19.7513Z" fill="#E3E3E3"/>
<path d="M18.989 19.8331L19.5449 19.5393L19.8916 20.3842L19.343 20.5286L18.989 19.8331Z" fill="#E3E3E3"/>
</svg>
